<!--
Derived from KV4P HT project artwork.
Copyright (C) 2024 Vance Vagell
Modifications Copyright (C) 2026 Blake Ross WX4ATL
SPDX-License-Identifier: GPL-3.0-or-later
-->
<svg width="1024" height="1024" viewBox="0 0 512 512" fill="none" xmlns="http://www.w3.org/2000/svg">
<path d="M123 237C123 223.745 133.745 213 147 213H363C376.255 213 387 223.745 387 237V510C387 523.255 376.255 534 363 534H147C133.745 534 123 523.255 123 510V237Z" fill="#21201F"/>
<path d="M189 43C189 34.7157 182.284 28 174 28C165.716 28 159 34.7157 159 43L189 43ZM189 203L189 43L159 43L159 203L189 203Z" fill="#21201F"/>
<path d="M352.5 195C352.5 182.574 342.426 172.5 330 172.5C317.574 172.5 307.5 182.574 307.5 195L352.5 195ZM352.5 203L352.5 195L307.5 195L307.5 203L352.5 203Z" fill="#21201F"/>
</svg>
